<?xml version="1.0" encoding="UTF-8" standalone="no"?>
<!-- Created with Inkscape (http://www.inkscape.org/) -->

<svg
   xmlns:dc="http://purl.org/dc/elements/1.1/"
   xmlns:cc="http://creativecommons.org/ns#"
   xmlns:rdf="http://www.w3.org/1999/02/22-rdf-syntax-ns#"
   xmlns:svg="http://www.w3.org/2000/svg"
   xmlns="http://www.w3.org/2000/svg"
   xmlns:sodipodi="http://sodipodi.sourceforge.net/DTD/sodipodi-0.dtd"
   xmlns:inkscape="http://www.inkscape.org/namespaces/inkscape"
   width="943.3302"
   height="957.07758"
   id="svg2"
   version="1.1"
   inkscape:version="0.92.4 5da689c313, 2019-01-14"
   sodipodi:docname="wmrc.svg">
  <title
     id="title840">wmrc logo</title>
  <defs
     id="defs4">
    <clipPath
       id="mask">
      <path
         id="path1452"
         d="m 47.5,-87.5 v 425 h -95 v -425 l -552,-552 v 1250 h 1199 v -1250 z"
         inkscape:connector-curvature="0" />
    </clipPath>
  </defs>
  <sodipodi:namedview
     id="base"
     pagecolor="#ffffff"
     bordercolor="#666666"
     borderopacity="1.0"
     inkscape:pageopacity="0.0"
     inkscape:pageshadow="2"
     inkscape:zoom="0.98994949"
     inkscape:cx="-138.52794"
     inkscape:cy="456.08114"
     inkscape:document-units="px"
     inkscape:current-layer="g1490"
     showgrid="false"
     fit-margin-top="0"
     fit-margin-left="0"
     fit-margin-right="0"
     fit-margin-bottom="0"
     inkscape:window-width="3196"
     inkscape:window-height="1760"
     inkscape:window-x="0"
     inkscape:window-y="36"
     inkscape:window-maximized="1" />
  <metadata
     id="metadata7">
    <rdf:RDF>
      <cc:Work
         rdf:about="">
        <dc:format>image/svg+xml</dc:format>
        <dc:type
           rdf:resource="http://purl.org/dc/dcmitype/StillImage" />
        <dc:title>wmrc logo</dc:title>
        <dc:creator>
          <cc:Agent>
            <dc:title>Arkanosis, Educa33e, Like tears in rain, Jxjl</dc:title>
          </cc:Agent>
        </dc:creator>
        <dc:rights>
          <cc:Agent>
            <dc:title>CC-BY-SA 3.0</dc:title>
          </cc:Agent>
        </dc:rights>
        <dc:source>https://commons.wikimedia.org/wiki/File:Wmrc_logo.svg</dc:source>
      </cc:Work>
    </rdf:RDF>
  </metadata>
  <g
     inkscape:label="Calque 1"
     inkscape:groupmode="layer"
     id="layer1"
     transform="translate(125.95079,-13.823411)">
    <g
       transform="matrix(0.85475793,0,0,0.85475793,342.7324,488.69682)"
       id="g1490">
      <path
         id="rect5278"
         d="m -310.2806,484.285 c 4.63451,4.26515 15.39882,9.57011 21.59395,11.5912 l 71.50619,-123.82545 -20.35549,-12.48546 z"
         style="fill:#ff0000;fill-opacity:1;stroke:none"
         sodipodi:nodetypes="ccccc"
         inkscape:connector-curvature="0" />
      <path
         id="rect10134"
         d="m -250.57059,497.35173 c 39.09446,24.09657 151.324754,49.76472 188.025668,49.50279 -0.315624,-5.45293 -0.260394,-103.97661 0,-112.62539 -32.179776,1.57149 -109.158818,-21.64029 -128.985068,-34.57339 -5.31897,8.1195 -57.81967,95.60625 -59.0406,97.69599 z"
         style="fill:#e5e5e5;fill-opacity:1;stroke:none"
         sodipodi:nodetypes="ccccc"
         inkscape:connector-curvature="0" />
      <rect
         id="rect14013"
         x="-26.375633"
         y="-564.14117"
         width="22.605623"
         height="143.26996"
         transform="scale(1,-1)"
         style="fill:#ff0000;fill-opacity:1;stroke:none" />
      <path
         id="rect14015"
         d="M 32.664827,548.42602 C 76.01444,549.2118 193.2976,516.99569 222.28598,496.82787 L 164.8411,398.34614 c -18.6163,13.09598 -94.943464,33.52573 -132.442218,36.40682 z"
         style="fill:#e5e5e5;fill-opacity:1;stroke:none"
         sodipodi:nodetypes="ccccc"
         inkscape:connector-curvature="0" />
      <path
         id="rect15956"
         d="m 261.1145,496.56597 c 5.05301,-2.09537 15.15905,-8.11953 20.74397,-13.09598 L 208.19072,358.27248 186.6489,371.36842 Z"
         style="fill:#ff0000;fill-opacity:1;stroke:none"
         sodipodi:nodetypes="ccccc"
         inkscape:connector-curvature="0" />
      <path
         id="rect17897"
         d="M 301.05076,451.05658 C 351.44925,418.8309 406.73712,361.78775 441.33904,316.2273 l -98.1642,-58.52481 c -20.68594,30.00324 -66.94717,77.78611 -98.91637,96.67706 z"
         style="fill:#e5e5e5;fill-opacity:1;stroke:none"
         sodipodi:nodetypes="ccccc"
         inkscape:connector-curvature="0" />
      <path
         id="path19838"
         d="m 474.06045,294.3731 -125.99619,-71.85956 11.65933,-20.37261 125.9962,73.34127 c -3.38492,7.03776 -6.76995,13.33475 -11.65934,18.8909 z"
         style="fill:#ff0000;fill-opacity:1;fill-rule:evenodd;stroke:none"
         sodipodi:nodetypes="ccccc"
         inkscape:connector-curvature="0" />
      <path
         id="path21778"
         d="m 388.68396,180.65717 c 19.1815,-46.67162 25.19918,-82.231064 33.47359,-131.495618 l 116.21739,0.370391 C 534.98993,113.98337 515.43233,180.65717 487.97646,235.47792 Z"
         style="fill:#e5e5e5;fill-opacity:1;fill-rule:evenodd;stroke:none"
         sodipodi:nodetypes="ccccc"
         inkscape:connector-curvature="0" />
      <rect
         id="rect24687"
         x="409.74609"
         y="-16.194977"
         width="145.55382"
         height="24.817476"
         transform="scale(1,-1)"
         style="fill:#ff0000;fill-opacity:1;stroke:none" />
      <path
         id="path24689"
         d="m 421.78144,-41.218496 c 1.50443,-31.11448 -20.86845,-99.486864 -34.91351,-129.029824 l 99.98021,-58.39774 c 26.38103,48.39666 48.51792,125.19865 52.27899,187.057173 z"
         style="fill:#e5e5e5;fill-opacity:1;fill-rule:evenodd;stroke:none"
         sodipodi:nodetypes="ccccc"
         inkscape:connector-curvature="0" />
      <path
         id="path26629"
         d="m 360.57922,-194.37772 -11.94879,-21.27909 124.97693,-71.96429 c 4.78704,6.28611 8.24445,12.83408 12.76552,20.95356 z"
         style="fill:#ff0000;fill-opacity:1;fill-rule:evenodd;stroke:none"
         sodipodi:nodetypes="ccccc"
         inkscape:connector-curvature="0" />
      <path
         id="path28569"
         d="m 344.09041,-251.21428 97.86908,-56.05076 C 419.35385,-341.31457 347.2818,-418.5808 302.60243,-445.55851 l -58.24273,97.43406 c 28.19056,18.0724 69.94447,61.28915 99.73071,96.91017 z"
         style="fill:#e5e5e5;fill-opacity:1;fill-rule:evenodd;stroke:none"
         sodipodi:nodetypes="ccccc"
         inkscape:connector-curvature="0" />
      <path
         id="path30509"
         d="m 208.1907,-351.00563 -20.21209,-13.35788 73.13584,-124.67363 c 7.18062,4.19066 14.36122,8.90519 21.2759,13.61976 z"
         style="fill:#ff0000;fill-opacity:1;fill-rule:evenodd;stroke:none"
         sodipodi:nodetypes="ccccc"
         inkscape:connector-curvature="0" />
      <path
         id="path31480"
         d="m 165.10706,-391.86506 56.91295,-96.91017 c -49.4664,-24.62051 -111.69822,-43.21675 -189.355183,-51.86008 l -0.265945,113.41117 c 49.732387,3.66684 105.315568,23.31075 132.708178,35.35908 z"
         style="fill:#e5e5e5;fill-opacity:1;fill-rule:evenodd;stroke:none"
         sodipodi:nodetypes="ccccc"
         inkscape:connector-curvature="0" />
      <rect
         id="rect34389"
         x="-26.907654"
         y="412.29483"
         width="22.605623"
         height="143.26996"
         transform="scale(1,-1)"
         style="fill:#ff0000;fill-opacity:1;fill-rule:evenodd;stroke:none" />
      <path
         id="path5214"
         d="m -192.40299,-391.62643 -58.29673,-98.89955 c 47.38957,-22.59502 115.08902,-43.33798 188.054054,-50.00536 v 113.34549 c -34.978086,4.81531 -101.173164,20.00216 -129.757324,35.55942 z"
         style="fill:#e5e5e5;fill-opacity:1;fill-rule:evenodd;stroke:none"
         sodipodi:nodetypes="ccccc"
         inkscape:connector-curvature="0" />
      <path
         id="path7154"
         d="m -231.11061,-350.16935 19.28779,-13.33204 -63.64968,-126.28375 -17.68048,13.70232 z"
         style="fill:#ff0000;fill-opacity:1;fill-rule:evenodd;stroke:none"
         sodipodi:nodetypes="ccccc"
         inkscape:connector-curvature="0" />
      <path
         id="path3188"
         d="m -360.10672,-249.0034 -95.7313,-55.33749 c 22.11184,-33.61621 92.60956,-109.89921 136.31299,-136.53363 l 56.97051,96.19413 c -27.57481,17.84241 -68.41661,60.50928 -97.5522,95.67699 z"
         style="fill:#e5e5e5;fill-opacity:1;fill-rule:evenodd;stroke:none"
         sodipodi:nodetypes="ccccc"
         inkscape:connector-curvature="0" />
      <path
         id="path3190"
         d="m -327.07563,451.78308 c -47.23562,-30.98909 -99.05385,-85.84339 -131.48419,-129.65556 l 92.00363,-56.27912 c 19.3878,28.85196 62.74583,74.80132 92.7087,92.96735 z"
         style="fill:#e5e5e5;fill-opacity:1;stroke:none"
         sodipodi:nodetypes="ccccc"
         inkscape:connector-curvature="0" />
      <g
         aria-label="RC"
         transform="matrix(1.1699219,0,0,1.1699219,-80.161793,-232.93406)"
         style="font-style:normal;font-weight:normal;font-size:40px;line-height:25px;font-family:sans-serif;letter-spacing:0px;word-spacing:0px;fill:#000000;fill-opacity:1;stroke:none;stroke-width:1px;stroke-linecap:butt;stroke-linejoin:miter;stroke-opacity:1"
         id="flowRoot4539">
        <path
           d="m -90.269539,186.75261 q 22.057291,0 31.536457,-8.20313 9.661458,-8.20312 9.661458,-26.97916 0,-18.59375 -9.661458,-26.61458 -9.479166,-8.02084 -31.536457,-8.02084 h -29.531251 v 69.81771 z m -29.531251,48.48958 v 102.99478 h -70.18228 V 66.075531 h 107.187489 q 53.776039,0 78.7499961,18.046874 25.1562489,18.046875 25.1562489,57.057285 0,26.97917 -13.1249996,44.29688 -12.9427076,17.3177 -39.1927064,25.52083 14.401041,3.28125 25.7031238,14.94791 11.4843744,11.48438 23.1510402,35 l 38.098956,77.29166 h -74.739579 l -33.177081,-67.6302 q -10.026041,-20.41667 -20.416666,-27.89062 -10.208333,-7.47396 -27.343748,-7.47396 z"
           style="font-style:normal;font-variant:normal;font-weight:bold;font-stretch:normal;font-size:373.33331299px;font-family:'DejaVu Sans';-inkscape-font-specification:'DejaVu Sans Bold';letter-spacing:-12.97997379px;word-spacing:-4.31999826px"
           id="path4693" />
        <path
           d="m 300.3442,323.28906 q -19.32291,10.02604 -40.28645,15.13021 -20.96354,5.10416 -43.75,5.10416 -67.99479,0 -107.73437,-37.91666 Q 68.8338,267.50781 68.8338,202.42969 q 0,-65.26041 39.73958,-103.177078 39.73958,-38.098956 107.73437,-38.098956 22.78646,0 43.75,5.104166 20.96354,5.104167 40.28645,15.130208 v 56.32812 q -19.5052,-13.30729 -38.46354,-19.50521 -18.95833,-6.19791 -39.92187,-6.19791 -37.55208,0 -59.06249,24.0625 -21.51042,24.0625 -21.51042,66.35416 0,42.10937 21.51042,66.17187 21.51041,24.0625 59.06249,24.0625 20.96354,0 39.92187,-6.19792 18.95834,-6.19791 38.46354,-19.5052 z"
           style="font-style:normal;font-variant:normal;font-weight:bold;font-stretch:normal;font-size:373.33331299px;font-family:'DejaVu Sans';-inkscape-font-specification:'DejaVu Sans Bold';letter-spacing:-12.97997379px;word-spacing:-4.31999826px"
           id="path4695" />
      </g>
    </g>
  </g>
</svg>
